<?xml version="1.0" encoding="UTF-8"?>
<svg width="16px" height="16px" viewBox="0 0 16 16" version="1.1" xmlns="http://www.w3.org/2000/svg" xmlns:xlink="http://www.w3.org/1999/xlink">
    <!-- Generator: Sketch 42 (36781) - http://www.bohemiancoding.com/sketch -->
    <title>Combined Shape</title>
    <desc>Created with Sketch.</desc>
    <defs></defs>
    <g id="Page-5" stroke="none" stroke-width="1" fill="none" fill-rule="evenodd">
        <g id="Artboard" transform="translate(-342.000000, -214.000000)" fill="#FC5D5D">
            <path d="M350,223.257079 L352.643773,225.900852 C352.991016,226.248095 353.549811,226.244077 353.896944,225.896944 C354.246497,225.547391 354.245826,224.988748 353.900852,224.643773 L351.257079,222 L353.900852,219.356227 C354.248095,219.008984 354.244077,218.450189 353.896944,218.103056 C353.547391,217.753503 352.988748,217.754174 352.643773,218.099148 L350,220.742921 L347.356227,218.099148 C347.008984,217.751905 346.450189,217.755923 346.103056,218.103056 C345.753503,218.452609 345.754174,219.011252 346.099148,219.356227 L348.742921,222 L346.099148,224.643773 C345.751905,224.991016 345.755923,225.549811 346.103056,225.896944 C346.452609,226.246497 347.011252,226.245826 347.356227,225.900852 L350,223.257079 Z M342,215.000872 C342,214.448106 342.444631,214 343.000872,214 L356.999128,214 C357.551894,214 358,214.444631 358,215.000872 L358,228.999128 C358,229.551894 357.555369,230 356.999128,230 L343.000872,230 C342.448106,230 342,229.555369 342,228.999128 L342,215.000872 Z" id="Combined-Shape"></path>
        </g>
    </g>
</svg>