<?xml version="1.0" encoding="UTF-8"?>
<svg width="12px" height="12px" viewBox="0 0 12 12" version="1.1" xmlns="http://www.w3.org/2000/svg" xmlns:xlink="http://www.w3.org/1999/xlink">
    <!-- Generator: Sketch 42 (36781) - http://www.bohemiancoding.com/sketch -->
    <title>Combined Shape</title>
    <desc>Created with Sketch.</desc>
    <defs></defs>
    <g id="Page-1" stroke="none" stroke-width="1" fill="none" fill-rule="evenodd">
        <path d="M4.8,4.8 L1.19447708,4.8 C0.546797276,4.8 -1.66229681e-15,5.3372583 -1.70287803e-15,6 C-1.74374218e-15,6.66736221 0.534785605,7.2 1.19447708,7.2 L4.8,7.2 L4.8,10.8055229 C4.8,11.4532027 5.3372583,12 6,12 C6.66736221,12 7.2,11.4652144 7.2,10.8055229 L7.2,7.2 L10.8055229,7.2 C11.4532027,7.2 12,6.6627417 12,6 C12,5.33263779 11.4652144,4.8 10.8055229,4.8 L7.2,4.8 L7.2,1.19447708 C7.2,0.546797276 6.6627417,0 6,0 C5.33263779,0 4.8,0.534785605 4.8,1.19447708 L4.8,4.8 Z" id="Combined-Shape" fill="#2E84E8"></path>
    </g>
</svg>