<?xml version="1.0" encoding="UTF-8"?>
<svg width="6px" height="6px" viewBox="0 0 6 6" version="1.1" xmlns="http://www.w3.org/2000/svg" xmlns:xlink="http://www.w3.org/1999/xlink">
    <!-- Generator: Sketch 42 (36781) - http://www.bohemiancoding.com/sketch -->
    <title>Combined-Shape</title>
    <desc>Created with Sketch.</desc>
    <defs></defs>
    <g id="Page-1" stroke="none" stroke-width="1" fill="none" fill-rule="evenodd">
        <path d="M3,3.90668967 L4.90686637,5.81355602 C5.15732131,6.06401096 5.56036172,6.0611129 5.81073734,5.81073734 C6.06285842,5.55861626 6.0623744,5.15568548 5.81355602,4.90686637 L3.90668967,3 L5.81355602,1.09313363 C6.06401096,0.842678693 6.0611129,0.439638263 5.81073734,0.189262667 C5.55861626,-0.0628583957 5.15568548,-0.0623744255 4.90686637,0.186443957 L3,2.09331033 L1.09313363,0.186443957 C0.842678693,-0.0640109807 0.439638263,-0.0611129297 0.189262667,0.189262667 C-0.0628583957,0.441383729 -0.0623744255,0.844314521 0.186443957,1.09313363 L2.09331033,3 L0.186443957,4.90686637 C-0.0640109807,5.15732131 -0.0611129297,5.56036172 0.189262667,5.81073734 C0.441383729,6.06285842 0.844314521,6.0623744 1.09313363,5.81355602 L3,3.90668967 Z" id="Combined-Shape" fill="#DC4D4D" fill-rule="nonzero"></path>
    </g>
</svg>